<svg width="256" height="256" viewBox="0 0 256 256" fill="none" xmlns="http://www.w3.org/2000/svg">
<g clip-path="url(#clip0_5_13)">
<path d="M224 91.9V30.4C224.009 27.4596 223.438 24.5463 222.318 21.8274C221.198 19.1085 219.553 16.6375 217.476 14.5562C215.398 12.4749 212.931 10.8243 210.214 9.69925C207.497 8.57416 204.585 7.99669 201.645 8H140.18C136.15 8.00829 132.285 9.60547 129.425 12.445L6.5449 135.29C2.35398 139.494 0.000671387 145.189 0.000671387 151.125C0.000671387 157.061 2.35398 162.756 6.5449 166.96L65.0449 225.46C69.2478 229.652 74.9415 232.006 80.8774 232.006C86.8134 232.006 92.507 229.652 96.7099 225.46L219.555 102.655C222.395 99.7954 223.993 95.9305 224 91.9ZM176 72C172.835 72 169.742 71.0616 167.111 69.3035C164.48 67.5454 162.429 65.0466 161.218 62.1229C160.007 59.1993 159.69 55.9823 160.307 52.8786C160.925 49.7749 162.449 46.9239 164.686 44.6863C166.924 42.4487 169.775 40.9248 172.878 40.3074C175.982 39.6901 179.199 40.0069 182.123 41.2179C185.046 42.4289 187.545 44.4797 189.303 47.1109C191.062 49.7421 192 52.8355 192 56C192 60.2435 190.314 64.3131 187.314 67.3137C184.313 70.3143 180.243 72 176 72Z" fill="#1AA090"/>
<path d="M248 32C245.878 32 243.843 32.8429 242.343 34.3431C240.843 35.8434 240 37.8783 240 40V103.685L109.345 234.345C108.571 235.08 107.952 235.963 107.524 236.942C107.097 237.921 106.869 238.975 106.856 240.042C106.842 241.11 107.042 242.17 107.445 243.159C107.847 244.148 108.443 245.047 109.198 245.802C109.953 246.557 110.852 247.153 111.841 247.555C112.83 247.958 113.89 248.158 114.958 248.144C116.025 248.13 117.079 247.903 118.058 247.476C119.036 247.048 119.92 246.429 120.655 245.655L251.655 114.655C253.048 113.255 254.15 111.592 254.896 109.763C255.642 107.934 256.017 105.975 256 104V40C256 37.8783 255.157 35.8434 253.657 34.3431C252.157 32.8429 250.122 32 248 32Z" fill="#1AA090"/>
</g>
<defs>
<clipPath id="clip0_5_13">
<rect width="256" height="256" fill="white"/>
</clipPath>
</defs>
</svg>
