<svg width="256" height="256" viewBox="0 0 256 256" fill="none" xmlns="http://www.w3.org/2000/svg">
<path d="M214.88 88.2133L231.552 71.5413L216.469 56.4587L198.251 74.6667C187.051 67.9467 173.995 64 160 64C118.837 64 85.3333 97.4933 85.3333 138.667C85.3333 179.84 118.837 213.333 160 213.333C201.163 213.333 234.667 179.84 234.667 138.667C234.658 119.958 227.592 101.94 214.88 88.2133ZM160 192C130.592 192 106.667 168.075 106.667 138.667C106.667 109.259 130.592 85.3333 160 85.3333C189.408 85.3333 213.333 109.259 213.333 138.667C213.333 168.075 189.408 192 160 192Z" fill="#1AA090"/>
<path d="M149.333 106.667H170.667V149.333H149.333V106.667ZM138.667 32H181.333V53.3333H138.667V32ZM32 85.3333H74.6667V106.667H32V85.3333ZM32 170.667H74.6667V192H32V170.667ZM21.3333 128H63.8933V149.333H21.3333V128Z" fill="#1AA090"/>
</svg>
